<svg width="36" height="36" viewBox="0 0 36 36" fill="none" xmlns="http://www.w3.org/2000/svg">
<mask id="mask0_2_557" style="mask-type:alpha" maskUnits="userSpaceOnUse" x="0" y="0" width="36" height="36">
<rect width="36" height="36" fill="#BABABA"/>
</mask>
<g mask="url(#mask0_2_557)">
<path d="M4.78249 31.5C3.86522 31.5 3.08882 31.185 2.45329 30.555C1.81776 29.925 1.5 29.1553 1.5 28.246V7.75395C1.5 6.84465 1.81776 6.075 2.45329 5.445C3.08882 4.815 3.86522 4.5 4.78249 4.5H13.3934C13.831 4.5 14.2518 4.5843 14.6558 4.7529C15.0596 4.9212 15.4105 5.1531 15.7086 5.4486L18.3832 8.1H32.7175C33.6348 8.1 34.4112 8.415 35.0467 9.045C35.6822 9.675 36 10.4446 36 11.3539V28.246C36 29.1553 35.6822 29.925 35.0467 30.555C34.4112 31.185 33.6348 31.5 32.7175 31.5H4.78249ZM4.78249 28.8H32.7175C32.8806 28.8 33.0145 28.7481 33.1192 28.6443C33.224 28.5405 33.2763 28.4077 33.2763 28.246V11.3539C33.2763 11.1922 33.224 11.0595 33.1192 10.9557C33.0145 10.8519 32.8806 10.8 32.7175 10.8H17.2692L13.7952 7.3557C13.7368 7.2981 13.6756 7.25775 13.6118 7.23465C13.5476 7.21155 13.4806 7.2 13.4107 7.2H4.78249C4.61937 7.2 4.48546 7.2519 4.38075 7.3557C4.27604 7.4595 4.22368 7.59225 4.22368 7.75395V28.246C4.22368 28.4077 4.27604 28.5405 4.38075 28.6443C4.48546 28.7481 4.61937 28.8 4.78249 28.8Z" fill="white"/>
</g>
</svg>
