<svg width="40" height="40" viewBox="0 0 40 40" fill="none" xmlns="http://www.w3.org/2000/svg">
<path fill-rule="evenodd" clip-rule="evenodd" d="M24.0849 2.01042C23.9831 2.0035 23.8807 2 23.7779 2H13.8094C9.49638 2 6 5.49638 6 9.80938V29.5383C6 33.8513 9.49638 37.3477 13.8094 37.3477H26.962C31.275 37.3477 34.7714 33.8513 34.7714 29.5383V14.3306H28.6061C26.1091 14.3306 24.0849 12.3064 24.0849 9.80938V2.01042ZM12.5763 19.6739C12.5763 18.9929 13.1284 18.4408 13.8094 18.4408H26.962C27.643 18.4408 28.1951 18.9929 28.1951 19.6739C28.1951 20.3549 27.643 20.9069 26.962 20.9069H13.8094C13.1284 20.9069 12.5763 20.3549 12.5763 19.6739ZM13.8094 26.6612C13.1284 26.6612 12.5763 27.2133 12.5763 27.8943C12.5763 28.5753 13.1284 29.1273 13.8094 29.1273H20.3857C21.0667 29.1273 21.6188 28.5753 21.6188 27.8943C21.6188 27.2133 21.0667 26.6612 20.3857 26.6612H13.8094Z" fill="white"/>
<path d="M34.067 11.8645C33.9632 11.701 33.8486 11.5437 33.7235 11.3936L27.2512 3.62681C27.0409 3.37446 26.8058 3.14818 26.551 2.95031V9.80938C26.551 10.9444 27.4711 11.8645 28.6061 11.8645H34.067Z" fill="white"/>
</svg>
