<svg width="24" height="24" viewBox="0 0 24 24" fill="none" xmlns="http://www.w3.org/2000/svg">
<mask id="mask0_65_1042" style="mask-type:alpha" maskUnits="userSpaceOnUse" x="0" y="0" width="24" height="24">
<rect width="24" height="24" fill="#D9D9D9"/>
</mask>
<g mask="url(#mask0_65_1042)">
<path d="M11.9678 9.12944L4.43502 16.6622C4.23636 16.8609 3.99986 16.9576 3.72552 16.9524C3.45119 16.9473 3.21461 16.8454 3.01577 16.6467C2.81711 16.448 2.71777 16.2115 2.71777 15.9372C2.71777 15.6629 2.81711 15.4263 3.01577 15.2274L10.687 7.57169C10.8679 7.39102 11.0704 7.25711 11.2948 7.16994C11.5191 7.08261 11.7434 7.03894 11.9678 7.03894C12.1921 7.03894 12.4164 7.08261 12.6408 7.16994C12.8651 7.25711 13.0677 7.39102 13.2485 7.57169L20.9198 15.2429C21.1184 15.4416 21.2152 15.6755 21.21 15.9447C21.2049 16.214 21.1029 16.448 20.9043 16.6467C20.7056 16.8454 20.4691 16.9447 20.1948 16.9447C19.9204 16.9447 19.6839 16.8454 19.485 16.6467L11.9678 9.12944Z" fill="white"/>
</g>
</svg>
