<svg width="44" height="44" viewBox="0 0 44 44" fill="none" xmlns="http://www.w3.org/2000/svg">
<mask id="mask0_233_867" style="mask-type:alpha" maskUnits="userSpaceOnUse" x="10" y="10" width="24" height="24">
<rect x="10" y="10" width="24" height="24" fill="#D9D9D9"/>
</mask>
<g mask="url(#mask0_233_867)">
<path d="M22 29.2692C21.5875 29.2692 21.2344 29.1223 20.9408 28.8285C20.6469 28.5348 20.5 28.1817 20.5 27.7692C20.5 27.3567 20.6469 27.0035 20.9408 26.7097C21.2344 26.416 21.5875 26.2692 22 26.2692C22.4125 26.2692 22.7656 26.416 23.0592 26.7097C23.3531 27.0035 23.5 27.3567 23.5 27.7692C23.5 28.1817 23.3531 28.5348 23.0592 28.8285C22.7656 29.1223 22.4125 29.2692 22 29.2692ZM22 23.5C21.5875 23.5 21.2344 23.353 20.9408 23.0592C20.6469 22.7655 20.5 22.4125 20.5 22C20.5 21.5875 20.6469 21.2344 20.9408 20.9407C21.2344 20.6469 21.5875 20.5 22 20.5C22.4125 20.5 22.7656 20.6469 23.0592 20.9407C23.3531 21.2344 23.5 21.5875 23.5 22C23.5 22.4125 23.3531 22.7655 23.0592 23.0592C22.7656 23.353 22.4125 23.5 22 23.5ZM22 17.7307C21.5875 17.7307 21.2344 17.5839 20.9408 17.2902C20.6469 16.9964 20.5 16.6432 20.5 16.2307C20.5 15.8182 20.6469 15.4651 20.9408 15.1715C21.2344 14.8776 21.5875 14.7307 22 14.7307C22.4125 14.7307 22.7656 14.8776 23.0592 15.1715C23.3531 15.4651 23.5 15.8182 23.5 16.2307C23.5 16.6432 23.3531 16.9964 23.0592 17.2902C22.7656 17.5839 22.4125 17.7307 22 17.7307Z" fill="white"/>
</g>
</svg>
