<svg width="28" height="28" viewBox="0 0 28 28" fill="none" xmlns="http://www.w3.org/2000/svg">
<mask id="mask0_98_1313" style="mask-type:alpha" maskUnits="userSpaceOnUse" x="4" y="4" width="24" height="24">
<rect x="4" y="4" width="24" height="24" fill="#D9D9D9"/>
</mask>
<g mask="url(#mask0_98_1313)">
<path d="M14 15.744L5.60397 24.1404C5.37475 24.3694 5.08663 24.4866 4.73963 24.4921C4.3929 24.4974 4.09954 24.3801 3.85956 24.1404C3.61985 23.9005 3.5 23.6097 3.5 23.2682C3.5 22.9267 3.61985 22.636 3.85956 22.396L12.256 14L3.85956 5.60397C3.63061 5.37475 3.51338 5.08663 3.50786 4.73963C3.50262 4.3929 3.61985 4.09954 3.85956 3.85956C4.09954 3.61985 4.39027 3.5 4.73177 3.5C5.07326 3.5 5.36399 3.61985 5.60397 3.85956L14 12.256L22.396 3.85956C22.6252 3.63061 22.9134 3.51338 23.2604 3.50786C23.6071 3.50262 23.9005 3.61985 24.1404 3.85956C24.3801 4.09954 24.5 4.39028 24.5 4.73177C24.5 5.07326 24.3801 5.36399 24.1404 5.60397L15.744 14L24.1404 22.396C24.3694 22.6252 24.4866 22.9134 24.4921 23.2604C24.4974 23.6071 24.3801 23.9005 24.1404 24.1404C23.9005 24.3801 23.6097 24.5 23.2682 24.5C22.9267 24.5 22.636 24.3801 22.396 24.1404L14 15.744Z" fill="#8D8D8D"/>
</g>
</svg>
