<svg width="24" height="24" viewBox="0 0 24 24" fill="none" xmlns="http://www.w3.org/2000/svg">
<path d="M5.05063 8.23418C4.20573 7.10763 5.00954 5.5 6.41772 5.5H17.5823C18.9905 5.5 19.7943 7.10763 18.9494 8.23418V8.23418C18.3331 9.05584 18 10.0552 18 11.0823V17.5C18 19.7091 16.2091 21.5 14 21.5H10C7.79086 21.5 6 19.7091 6 17.5V11.0823C6 10.0552 5.66688 9.05584 5.05063 8.23418V8.23418Z" stroke="#F04443" stroke-width="1.5"/>
<path d="M14 16.5L14 10.5" stroke="#F04443" stroke-width="1.5" stroke-linecap="round" stroke-linejoin="round"/>
<path d="M10 16.5L10 10.5" stroke="#F04443" stroke-width="1.5" stroke-linecap="round" stroke-linejoin="round"/>
<path d="M16 5.5L15.4558 3.86754C15.1836 3.05086 14.4193 2.5 13.5585 2.5H10.4415C9.58066 2.5 8.81638 3.05086 8.54415 3.86754L8 5.5" stroke="#F04443" stroke-width="1.5" stroke-linecap="round"/>
</svg>
