<svg width="64" height="64" viewBox="0 0 64 64" fill="none" xmlns="http://www.w3.org/2000/svg">
<circle cx="32" cy="32" r="32" fill="#DFFC1C"/>
<path fill-rule="evenodd" clip-rule="evenodd" d="M30.1177 44.1765C30.1177 44.7288 30.5654 45.1765 31.1177 45.1765H32.8824C33.4347 45.1765 33.8824 44.7288 33.8824 44.1765V33.8823H44.1764C44.7287 33.8823 45.1764 33.4346 45.1764 32.8823V31.1176C45.1764 30.5653 44.7287 30.1176 44.1764 30.1176H33.8824V19.8235C33.8824 19.2713 33.4347 18.8235 32.8824 18.8235L31.1177 18.8235C30.5654 18.8235 30.1177 19.2713 30.1177 19.8235V30.1176H19.8235C19.2712 30.1176 18.8235 30.5653 18.8235 31.1176V32.8823C18.8235 33.4346 19.2712 33.8823 19.8235 33.8823H30.1177V44.1765Z" fill="#161616"/>
</svg>
