<svg width="32" height="31" viewBox="0 0 32 31" fill="none" xmlns="http://www.w3.org/2000/svg">
<g filter="url(#filter0_d_233_855)">
<mask id="mask0_233_855" style="mask-type:alpha" maskUnits="userSpaceOnUse" x="4" y="0" width="24" height="24">
<rect x="4" width="24" height="24" fill="#BABABA"/>
</mask>
<g mask="url(#mask0_233_855)">
<path d="M10.784 5.42576L14.1966 0.891888C14.4231 0.585009 14.6922 0.359695 15.0037 0.215945C15.3152 0.0719818 15.6441 0 15.9904 0C16.3366 0 16.6655 0.0719818 16.9771 0.215945C17.2886 0.359695 17.5576 0.585009 17.7842 0.891888L21.1967 5.42576L26.4151 7.20954C26.9136 7.37182 27.3024 7.65794 27.5813 8.06789C27.8604 8.47806 28 8.93103 28 9.42681C28 9.65574 27.967 9.88393 27.9009 10.1114C27.8349 10.3388 27.7263 10.5568 27.5753 10.7653L24.1773 15.5397L24.3035 20.6067C24.3245 21.2795 24.1054 21.8465 23.6462 22.3078C23.1872 22.7693 22.6523 23 22.0414 23C22.0235 23 21.8123 22.9721 21.4078 22.9163L15.9904 21.3437L10.5729 22.9163C10.4678 22.9589 10.3592 22.9835 10.2473 22.9901C10.1354 22.9967 10.0327 23 9.93934 23C9.32278 23 8.78637 22.7693 8.3301 22.3078C7.87384 21.8465 7.65622 21.2795 7.67726 20.6067L7.80347 15.5078L4.42471 10.7653C4.27368 10.5559 4.16513 10.3371 4.09908 10.1088C4.03303 9.88031 4 9.65191 4 9.42361C4 8.94168 4.13863 8.49349 4.41588 8.07907C4.69313 7.66464 5.0804 7.37075 5.57768 7.1974L10.784 5.42576ZM11.954 7.07697L6.18446 9.02303C6.06308 9.06392 5.9802 9.14793 5.93581 9.27507C5.89122 9.40199 5.90941 9.5187 5.9904 9.62518L9.70868 14.9379L9.57048 20.646C9.56227 20.7853 9.61076 20.8958 9.71594 20.9776C9.82112 21.0596 9.9385 21.0801 10.0681 21.0392L15.9904 19.3558L21.9127 21.0712C22.0423 21.1121 22.1596 21.0915 22.2648 21.0095C22.37 20.9278 22.4185 20.8172 22.4103 20.678L22.2721 14.9379L25.9904 9.68907C26.0713 9.58259 26.0895 9.46588 26.0449 9.33896C26.0006 9.21182 25.9177 9.12781 25.7963 9.08692L20.0267 7.07697L16.2939 2.08885C16.2209 1.98215 16.1197 1.92881 15.9904 1.92881C15.861 1.92881 15.7598 1.98215 15.6868 2.08885L11.954 7.07697Z" fill="#E5FF39"/>
<path d="M11.2002 6.59995L16.0002 1.19995L20.8002 6.59995L27.4002 8.99995L23.2002 15L22.6002 22.2L16.0002 20.4L8.8002 22.2V15.6L5.2002 8.99995L11.2002 6.59995Z" fill="#E5FF39"/>
</g>
</g>
<defs>
<filter id="filter0_d_233_855" x="0" y="0" width="32" height="32" filterUnits="userSpaceOnUse" color-interpolation-filters="sRGB">
<feFlood flood-opacity="0" result="BackgroundImageFix"/>
<feColorMatrix in="SourceAlpha" type="matrix" values="0 0 0 0 0 0 0 0 0 0 0 0 0 0 0 0 0 0 127 0" result="hardAlpha"/>
<feOffset dy="4"/>
<feGaussianBlur stdDeviation="2"/>
<feComposite in2="hardAlpha" operator="out"/>
<feColorMatrix type="matrix" values="0 0 0 0 0 0 0 0 0 0 0 0 0 0 0 0 0 0 0.25 0"/>
<feBlend mode="normal" in2="BackgroundImageFix" result="effect1_dropShadow_233_855"/>
<feBlend mode="normal" in="SourceGraphic" in2="effect1_dropShadow_233_855" result="shape"/>
</filter>
</defs>
</svg>
