<svg width="14" height="14" viewBox="0 0 14 14" fill="none" xmlns="http://www.w3.org/2000/svg">
<path fill-rule="evenodd" clip-rule="evenodd" d="M6.3875 13.3875C6.3875 13.7258 6.66173 14 7 14C7.33827 14 7.6125 13.7258 7.6125 13.3875V7.6125H13.3875C13.7258 7.6125 14 7.33827 14 7C14 6.66173 13.7258 6.3875 13.3875 6.3875H7.6125V0.6125C7.6125 0.274226 7.33827 0 7 0C6.66173 0 6.3875 0.274225 6.3875 0.6125V6.3875H0.6125C0.274226 6.3875 0 6.66173 0 7C0 7.33827 0.274225 7.6125 0.6125 7.6125H6.3875V13.3875Z" fill="white"/>
</svg>
