<svg width="36" height="36" viewBox="0 0 36 36" fill="none" xmlns="http://www.w3.org/2000/svg">
<mask id="mask0_2_560" style="mask-type:alpha" maskUnits="userSpaceOnUse" x="0" y="0" width="36" height="36">
<rect width="36" height="36" fill="#BABABA"/>
</mask>
<g mask="url(#mask0_2_560)">
<path d="M10.176 8.13865L15.2948 1.33783C15.6347 0.877513 16.0382 0.539542 16.5055 0.323917C16.9729 0.107973 17.4662 0 17.9856 0C18.5049 0 18.9983 0.107973 19.4656 0.323917C19.9329 0.539542 20.3365 0.877513 20.6763 1.33783L25.7951 8.13865L33.6226 10.8143C34.3704 11.0577 34.9535 11.4869 35.3719 12.1018C35.7906 12.7171 36 13.3965 36 14.1402C36 14.4836 35.9505 14.8259 35.8514 15.1671C35.7523 15.5082 35.5895 15.8352 35.3629 16.1479L30.2659 23.3095L30.4552 30.9101C30.4868 31.9192 30.1582 32.7697 29.4693 33.4616C28.7808 34.1539 27.9784 34.5 27.0621 34.5C27.0353 34.5 26.7185 34.4582 26.1117 34.3745L17.9856 32.0155L9.8594 34.3745C9.70163 34.4383 9.53882 34.4752 9.37095 34.4851C9.20309 34.495 9.04911 34.5 8.90901 34.5C7.98417 34.5 7.17955 34.1539 6.49516 33.4616C5.81076 32.7697 5.48433 31.9192 5.51589 30.9101L5.70521 23.2616L0.637068 16.1479C0.410513 15.8339 0.247696 15.5057 0.148618 15.1632C0.0495392 14.8205 0 14.4779 0 14.1354C0 13.4125 0.207938 12.7402 0.623815 12.1186C1.03969 11.497 1.62059 11.0561 2.36652 10.7961L10.176 8.13865ZM11.9311 10.6155L3.27669 13.5345C3.09462 13.5959 2.9703 13.7219 2.90372 13.9126C2.83683 14.103 2.86412 14.278 2.9856 14.4378L8.56302 22.4068L8.35572 30.969C8.34341 31.1779 8.41614 31.3437 8.57391 31.4664C8.73168 31.5894 8.90775 31.6202 9.10212 31.5589L17.9856 29.0337L26.869 31.6068C27.0634 31.6681 27.2395 31.6373 27.3972 31.5143C27.555 31.3916 27.6277 31.2259 27.6154 31.0169L27.4081 22.4068L32.9855 14.5336C33.107 14.3739 33.1343 14.1988 33.0674 14.0084C33.0008 13.8177 32.8765 13.6917 32.6944 13.6304L24.0401 10.6155L18.4409 3.13327C18.3314 2.97323 18.1796 2.89321 17.9856 2.89321C17.7915 2.89321 17.6397 2.97323 17.5302 3.13327L11.9311 10.6155Z" fill="white"/>
</g>
</svg>
