<svg width="16" height="15" viewBox="0 0 16 15" fill="none" xmlns="http://www.w3.org/2000/svg">
<path d="M4.52269 3.53854L6.7977 0.581666C6.94874 0.381528 7.1281 0.234584 7.3358 0.140834C7.54349 0.0469447 7.76275 0 7.99358 0C8.22442 0 8.44368 0.0469447 8.65137 0.140834C8.85907 0.234584 9.03843 0.381528 9.18947 0.581666L11.4645 3.53854L14.9434 4.70188C15.2757 4.80771 15.5349 4.99431 15.7209 5.26167C15.907 5.52917 16 5.82458 16 6.14792C16 6.29722 15.978 6.44604 15.9339 6.59438C15.8899 6.74271 15.8176 6.88486 15.7169 7.02084L13.4515 10.1346L13.5357 13.4392C13.5497 13.8779 13.4036 14.2477 13.0975 14.5485C12.7915 14.8495 12.4349 15 12.0276 15C12.0157 15 11.8749 14.9818 11.6052 14.9454L7.99358 13.9198L4.38196 14.9454C4.31184 14.9732 4.23947 14.9892 4.16487 14.9935C4.09026 14.9979 4.02183 15 3.95956 15C3.54852 15 3.19091 14.8495 2.88674 14.5485C2.58256 14.2477 2.43748 13.8779 2.45151 13.4392L2.53565 10.1138L0.283141 7.02084C0.18245 6.88431 0.110087 6.7416 0.0660522 6.59271C0.0220174 6.44368 0 6.29472 0 6.14583C0 5.83153 0.0924171 5.53924 0.277251 5.26896C0.462085 4.99868 0.720264 4.80701 1.05179 4.69396L4.52269 3.53854Z" fill="#E5FF39"/>
</svg>
