<svg width="36" height="36" viewBox="0 0 36 36" fill="none" xmlns="http://www.w3.org/2000/svg">
<mask id="mask0_2_554" style="mask-type:alpha" maskUnits="userSpaceOnUse" x="0" y="0" width="36" height="36">
<rect width="36" height="36" fill="#BABABA"/>
</mask>
<g mask="url(#mask0_2_554)">
<path d="M15.9688 36C15.3435 36 14.8035 35.7856 14.3488 35.3567C13.8937 34.9282 13.6169 34.4005 13.5181 33.7737L13.0703 30.2282C12.5792 30.0583 12.0755 29.8203 11.5594 29.5143C11.0435 29.208 10.5822 28.8801 10.1754 28.5305L6.9982 29.9259C6.42214 30.1884 5.84332 30.2138 5.26175 30.0022C4.67988 29.7909 4.22789 29.4073 3.90578 28.8512L1.83928 25.1488C1.51717 24.5927 1.42442 24.0043 1.56102 23.3834C1.69732 22.7629 2.00996 22.251 2.49893 21.8477L5.24571 19.7162C5.20353 19.4345 5.17358 19.1515 5.15586 18.8673C5.13813 18.5831 5.12927 18.3 5.12927 18.018C5.12927 17.7486 5.13813 17.4748 5.15586 17.1966C5.17358 16.9184 5.20353 16.6142 5.24571 16.2838L2.49893 14.1523C2.00996 13.749 1.70023 13.2339 1.56973 12.6071C1.43924 11.9806 1.53505 11.3891 1.85715 10.8327L3.90578 7.18532C4.22789 6.64121 4.67988 6.26053 5.26175 6.04326C5.84332 5.82569 6.42214 5.84811 6.9982 6.11053L10.1576 7.488C10.5998 7.12611 11.0718 6.79516 11.5736 6.49516C12.0754 6.19516 12.5685 5.95405 13.0529 5.77184L13.5181 2.22632C13.6169 1.59947 13.8937 1.07179 14.3488 0.643264C14.8035 0.214422 15.3435 0 15.9688 0H20.0312C20.6565 0 21.1965 0.214422 21.6512 0.643264C22.1063 1.07179 22.3831 1.59947 22.4819 2.22632L22.9297 5.78984C23.4798 5.99637 23.9775 6.23747 24.4228 6.51316C24.8683 6.78884 25.318 7.11379 25.7719 7.488L29.0197 6.11053C29.5954 5.84811 30.1743 5.82569 30.7561 6.04326C31.338 6.26053 31.7898 6.64121 32.1116 7.18532L34.1607 10.8512C34.4828 11.4073 34.5756 11.9957 34.439 12.6166C34.3027 13.2371 33.99 13.749 33.5011 14.1523L30.6837 16.3383C30.7494 16.6443 30.7853 16.9304 30.7914 17.1966C30.7972 17.4625 30.8001 17.7303 30.8001 18C30.8001 18.2574 30.7942 18.5192 30.7823 18.7854C30.7706 19.0513 30.7285 19.3555 30.6557 19.6982L33.4199 21.8477C33.9089 22.251 34.2246 22.7629 34.367 23.3834C34.5091 24.0043 34.4191 24.5927 34.097 25.1488L32.02 28.8327C31.6982 29.3891 31.2434 29.7729 30.6557 29.9842C30.0681 30.1955 29.4862 30.1699 28.9101 29.9075L25.7719 28.512C25.318 28.8862 24.8549 29.2172 24.3824 29.5048C23.91 29.7928 23.4257 30.028 22.9297 30.2102L22.4819 33.7737C22.3831 34.4005 22.1063 34.9282 21.6512 35.3567C21.1965 35.7856 20.6565 36 20.0312 36H15.9688ZM16.1664 33.1579H19.7704L20.4296 28.0824C21.3653 27.8297 22.2204 27.4708 22.9948 27.0057C23.7695 26.5402 24.5166 25.9419 25.236 25.2109L29.7916 27.1895L31.5973 23.9684L27.6197 20.8715C27.7725 20.3807 27.8764 19.8996 27.9314 19.4282C27.9867 18.957 28.0144 18.4809 28.0144 18C28.0144 17.5067 27.9867 17.0307 27.9314 16.5718C27.8764 16.1127 27.7725 15.6437 27.6197 15.165L31.6321 12.0316L29.8269 8.81053L25.2181 10.818C24.6044 10.1403 23.8693 9.54158 23.0127 9.02179C22.1558 8.502 21.2889 8.13395 20.4121 7.91763L19.8336 2.84211H16.1948L15.5879 7.89963C14.6524 8.12795 13.7886 8.47768 12.9965 8.94884C12.204 9.42032 11.4481 10.0276 10.7287 10.7706L6.17307 8.81053L4.36786 12.0316L8.32759 15.0812C8.17478 15.5308 8.06782 15.9985 8.0067 16.4842C7.94558 16.9699 7.91502 17.4812 7.91502 18.018C7.91502 18.5113 7.94558 18.9947 8.0067 19.4684C8.06782 19.9421 8.16898 20.4098 8.31017 20.8715L4.36786 23.9684L6.17307 27.1895L10.7113 25.2C11.4072 25.9383 12.1512 26.5432 12.9433 27.0147C13.7357 27.4858 14.6114 27.8477 15.5704 28.1004L16.1664 33.1579ZM18.0211 23.6842C19.5467 23.6842 20.8449 23.1309 21.9157 22.0244C22.9866 20.9179 23.522 19.5764 23.522 18C23.522 16.4236 22.9866 15.0821 21.9157 13.9756C20.8449 12.8691 19.5467 12.3158 18.0211 12.3158C16.4766 12.3158 15.1736 12.8691 14.1122 13.9756C13.0509 15.0821 12.5202 16.4236 12.5202 18C12.5202 19.5764 13.0509 20.9179 14.1122 22.0244C15.1736 23.1309 16.4766 23.6842 18.0211 23.6842Z" fill="#BABABA"/>
</g>
</svg>
