<svg width="24" height="24" viewBox="0 0 24 24" fill="none" xmlns="http://www.w3.org/2000/svg">
<mask id="mask0_345_4619" style="mask-type:alpha" maskUnits="userSpaceOnUse" x="0" y="0" width="24" height="24">
<rect width="24" height="24" fill="#BABABA"/>
</mask>
<g mask="url(#mask0_345_4619)">
<path d="M3.18833 21C2.57681 21 2.05921 20.79 1.63553 20.37C1.21184 19.95 1 19.4369 1 18.8307V5.1693C1 4.5631 1.21184 4.05 1.63553 3.63C2.05921 3.21 2.57681 3 3.18833 3H8.92895C9.22068 3 9.50122 3.0562 9.77057 3.1686C10.0397 3.2808 10.2736 3.4354 10.4724 3.6324L12.2555 5.4H21.8117C22.4232 5.4 22.9408 5.61 23.3645 6.03C23.7882 6.45 24 6.9631 24 7.5693V18.8307C24 19.4369 23.7882 19.95 23.3645 20.37C22.9408 20.79 22.4232 21 21.8117 21H3.18833ZM3.18833 19.2H21.8117C21.9204 19.2 22.0097 19.1654 22.0795 19.0962C22.1493 19.027 22.1842 18.9385 22.1842 18.8307V7.5693C22.1842 7.4615 22.1493 7.373 22.0795 7.3038C22.0097 7.2346 21.9204 7.2 21.8117 7.2H11.5128L9.19678 4.9038C9.15784 4.8654 9.11708 4.8385 9.07451 4.8231C9.03174 4.8077 8.98705 4.8 8.94045 4.8H3.18833C3.07958 4.8 2.99031 4.8346 2.9205 4.9038C2.85069 4.973 2.81579 5.0615 2.81579 5.1693V18.8307C2.81579 18.9385 2.85069 19.027 2.9205 19.0962C2.99031 19.1654 3.07958 19.2 3.18833 19.2Z" fill="white" fill-opacity="0.6"/>
</g>
</svg>
