<svg width="24" height="24" viewBox="0 0 24 24" fill="none" xmlns="http://www.w3.org/2000/svg">
<rect width="24" height="24" rx="12" fill="white" fill-opacity="0.1"/>
<path d="M13.8908 16.6622C14.2819 16.6622 14.6129 16.5203 14.8839 16.2365C15.1548 15.9527 15.2903 15.606 15.2903 15.1964V5.96574C15.2903 5.55615 15.1548 5.20946 14.8839 4.92568C14.6129 4.64189 14.2819 4.5 13.8908 4.5H7.39955C7.00845 4.5 6.67742 4.64189 6.40645 4.92568C6.13548 5.20946 6 5.55615 6 5.96574V15.1964C6 15.606 6.13548 15.9527 6.40645 16.2365C6.67742 16.5203 7.00845 16.6622 7.39955 16.6622H13.8908ZM13.8908 15.4459H7.39955C7.33994 15.4459 7.28535 15.4199 7.23581 15.3679C7.18613 15.316 7.16129 15.2589 7.16129 15.1964V5.96574C7.16129 5.90331 7.18613 5.84615 7.23581 5.79426C7.28535 5.74223 7.33994 5.71622 7.39955 5.71622H13.8908C13.9504 5.71622 14.005 5.74223 14.0545 5.79426C14.1042 5.84615 14.129 5.90331 14.129 5.96574V15.1964C14.129 15.2589 14.1042 15.316 14.0545 15.3679C14.005 15.4199 13.9504 15.4459 13.8908 15.4459ZM16.6005 19.5C16.9915 19.5 17.3226 19.3581 17.5935 19.0743C17.8645 18.7905 18 18.4439 18 18.0343V8.19547C18 8.02291 17.9444 7.87838 17.8332 7.76189C17.7221 7.64554 17.5841 7.58736 17.4194 7.58736C17.2546 7.58736 17.1166 7.64554 17.0054 7.76189C16.8943 7.87838 16.8387 8.02291 16.8387 8.19547V18.0343C16.8387 18.0967 16.8139 18.1539 16.7642 18.2057C16.7146 18.2578 16.6601 18.2838 16.6005 18.2838H9.52858C9.36381 18.2838 9.22581 18.342 9.11458 18.4583C9.00348 18.5748 8.94794 18.7193 8.94794 18.8919C8.94794 19.0645 9.00348 19.2089 9.11458 19.3253C9.22581 19.4418 9.36381 19.5 9.52858 19.5H16.6005Z" fill="white"/>
</svg>
