<svg width="20" height="20" viewBox="0 0 20 20" fill="none" xmlns="http://www.w3.org/2000/svg">
<mask id="mask0_172_6202" style="mask-type:alpha" maskUnits="userSpaceOnUse" x="0" y="0" width="20" height="20">
<rect width="20" height="20" fill="#BABABA"/>
</mask>
<g mask="url(#mask0_172_6202)">
<path d="M5.65336 4.52147L8.49713 0.74324C8.68592 0.487507 8.91013 0.299746 9.16975 0.179954C9.42936 0.0599848 9.70344 0 9.99198 0C10.2805 0 10.5546 0.0599848 10.8142 0.179954C11.0738 0.299746 11.298 0.487507 11.4868 0.74324L14.3306 4.52147L18.6792 6.00795C19.0947 6.14318 19.4186 6.38161 19.6511 6.72324C19.8837 7.06505 20 7.44252 20 7.85567C20 8.04645 19.9725 8.23661 19.9174 8.42615C19.8624 8.61568 19.7719 8.79732 19.6461 8.97106L16.8144 12.9497L16.9196 17.1723C16.9371 17.7329 16.7545 18.2054 16.3719 18.5898C15.9894 18.9744 15.5436 19.1667 15.0345 19.1667C15.0196 19.1667 14.8436 19.1434 14.5065 19.0969L9.99198 17.7864L5.47745 19.0969C5.3898 19.1324 5.29934 19.1529 5.20608 19.1584C5.11283 19.1639 5.02728 19.1667 4.94945 19.1667C4.43565 19.1667 3.98864 18.9744 3.60842 18.5898C3.2282 18.2054 3.04685 17.7329 3.06438 17.1723L3.16956 12.9231L0.353926 8.97106C0.228063 8.79661 0.137609 8.61426 0.0825653 8.42402C0.0275218 8.23359 0 8.04326 0 7.85301C0 7.4514 0.115521 7.07791 0.346564 6.73256C0.577607 6.3872 0.90033 6.1423 1.31473 5.99784L5.65336 4.52147ZM6.62836 5.89748L1.82038 7.51919C1.71923 7.55326 1.65017 7.62327 1.61318 7.72922C1.57602 7.835 1.59118 7.93225 1.65867 8.02098L4.75723 12.4482L4.64206 17.205C4.63523 17.3211 4.67563 17.4132 4.76328 17.4813C4.85093 17.5497 4.94875 17.5668 5.05673 17.5327L9.99198 16.1298L14.9272 17.5593C15.0352 17.5934 15.133 17.5763 15.2207 17.508C15.3083 17.4398 15.3487 17.3477 15.3419 17.2316L15.2267 12.4482L18.3253 8.07422C18.3928 7.98549 18.4079 7.88824 18.3708 7.78246C18.3338 7.67652 18.2647 7.60651 18.1636 7.57243L13.3556 5.89748L10.2449 1.74071C10.1841 1.65179 10.0998 1.60734 9.99198 1.60734C9.88417 1.60734 9.79985 1.65179 9.73903 1.74071L6.62836 5.89748Z" fill="#E5FF39"/>
<path d="M6 5.5L10 1L14 5.5L19.5 7.5L16 12.5L15.5 18.5L10 17L4 18.5V13L1 7.5L6 5.5Z" fill="#E5FF39"/>
</g>
</svg>
