<svg width="24" height="24" viewBox="0 0 24 24" fill="none" xmlns="http://www.w3.org/2000/svg">
<g id="move_item">
<mask id="mask0_233_681" style="mask-type:alpha" maskUnits="userSpaceOnUse" x="0" y="0" width="24" height="24">
<rect id="Bounding box" width="24" height="24" fill="#D9D9D9"/>
</mask>
<g mask="url(#mask0_233_681)">
<path id="move_item_2" d="M20.3713 12.75H9.327C9.11417 12.75 8.93592 12.6782 8.79225 12.5345C8.64875 12.391 8.577 12.2128 8.577 12C8.577 11.7872 8.64875 11.609 8.79225 11.4655C8.93592 11.3218 9.11417 11.25 9.327 11.25H20.3713L19.0788 9.95775C18.9301 9.80892 18.8568 9.63483 18.8588 9.4355C18.8606 9.23617 18.9339 9.05892 19.0788 8.90375C19.2339 8.74875 19.4122 8.66867 19.6135 8.6635C19.8147 8.65833 19.9928 8.73333 20.148 8.8885L22.6268 11.3672C22.8076 11.5481 22.898 11.759 22.898 12C22.898 12.241 22.8076 12.4519 22.6268 12.6328L20.148 15.1115C19.9993 15.2602 19.8228 15.3336 19.6183 15.3317C19.4138 15.3298 19.2339 15.2513 19.0788 15.0963C18.9339 14.9411 18.8589 14.7654 18.8538 14.5693C18.8488 14.3731 18.9238 14.1974 19.0788 14.0423L20.3713 12.75ZM15.202 8.1155V5.30775C15.202 5.21792 15.1732 5.14417 15.1155 5.0865C15.0577 5.02883 14.9839 5 14.8943 5H5.30775C5.21792 5 5.14417 5.02883 5.0865 5.0865C5.02883 5.14417 5 5.21792 5 5.30775V18.6923C5 18.7821 5.02883 18.8558 5.0865 18.9135C5.14417 18.9712 5.21792 19 5.30775 19H14.8943C14.9839 19 15.0577 18.9712 15.1155 18.9135C15.1732 18.8558 15.202 18.7821 15.202 18.6923V15.8845C15.202 15.6718 15.2738 15.4937 15.4173 15.35C15.5609 15.2065 15.7392 15.1348 15.952 15.1348C16.1648 15.1348 16.343 15.2065 16.4865 15.35C16.6302 15.4937 16.702 15.6718 16.702 15.8845V18.6923C16.702 19.1909 16.5253 19.6169 16.172 19.9703C15.8188 20.3234 15.3929 20.5 14.8943 20.5H5.30775C4.80908 20.5 4.38308 20.3234 4.02975 19.9703C3.67658 19.6169 3.5 19.1909 3.5 18.6923V5.30775C3.5 4.80908 3.67658 4.38308 4.02975 4.02975C4.38308 3.67658 4.80908 3.5 5.30775 3.5H14.8943C15.3929 3.5 15.8188 3.67658 16.172 4.02975C16.5253 4.38308 16.702 4.80908 16.702 5.30775V8.1155C16.702 8.32817 16.6302 8.50633 16.4865 8.65C16.343 8.7935 16.1648 8.86525 15.952 8.86525C15.7392 8.86525 15.5609 8.7935 15.4173 8.65C15.2738 8.50633 15.202 8.32817 15.202 8.1155Z" fill="#F7F7F7"/>
</g>
</g>
</svg>
