<svg width="24" height="24" viewBox="0 0 24 24" fill="none" xmlns="http://www.w3.org/2000/svg">
<mask id="mask0_345_4607" style="mask-type:alpha" maskUnits="userSpaceOnUse" x="0" y="0" width="24" height="24">
<rect width="24" height="24" fill="#BABABA"/>
</mask>
<g mask="url(#mask0_345_4607)">
<path d="M6.78403 5.42576L10.1966 0.891888C10.4231 0.585009 10.6922 0.359695 11.0037 0.215945C11.3152 0.0719818 11.6441 0 11.9904 0C12.3366 0 12.6655 0.0719818 12.9771 0.215945C13.2886 0.359695 13.5576 0.585009 13.7842 0.891888L17.1967 5.42576L22.4151 7.20954C22.9136 7.37182 23.3024 7.65793 23.5813 8.06789C23.8604 8.47806 24 8.93103 24 9.4268C24 9.65574 23.967 9.88393 23.9009 10.1114C23.8349 10.3388 23.7263 10.5568 23.5753 10.7653L20.1773 15.5397L20.3035 20.6067C20.3245 21.2795 20.1054 21.8465 19.6462 22.3078C19.1872 22.7693 18.6523 23 18.0414 23C18.0235 23 17.8123 22.9721 17.4078 22.9163L11.9904 21.3437L6.57294 22.9163C6.46776 22.9589 6.35921 22.9835 6.2473 22.9901C6.13539 22.9967 6.03274 23 5.93934 23C5.32278 23 4.78637 22.7693 4.3301 22.3078C3.87384 21.8465 3.65622 21.2795 3.67726 20.6067L3.80347 15.5077L0.424712 10.7653C0.273675 10.5559 0.165131 10.3371 0.0990784 10.1088C0.0330261 9.88031 0 9.65191 0 9.42361C0 8.94168 0.138626 8.49349 0.415877 8.07907C0.693128 7.66464 1.0804 7.37075 1.57768 7.1974L6.78403 5.42576ZM7.95404 7.07697L2.18446 9.02303C2.06308 9.06392 1.9802 9.14793 1.93581 9.27507C1.89122 9.40199 1.90941 9.5187 1.9904 9.62518L5.70868 14.9379L5.57048 20.646C5.56227 20.7853 5.61076 20.8958 5.71594 20.9776C5.82112 21.0596 5.9385 21.0801 6.06808 21.0392L11.9904 19.3558L17.9127 21.0712C18.0423 21.1121 18.1596 21.0915 18.2648 21.0095C18.37 20.9278 18.4185 20.8172 18.4103 20.678L18.2721 14.9379L21.9904 9.68907C22.0713 9.58259 22.0895 9.46588 22.0449 9.33896C22.0006 9.21182 21.9177 9.12781 21.7963 9.08692L16.0267 7.07697L12.2939 2.08885C12.2209 1.98215 12.1197 1.92881 11.9904 1.92881C11.861 1.92881 11.7598 1.98215 11.6868 2.08885L7.95404 7.07697Z" fill="white" fill-opacity="0.6"/>
</g>
</svg>
